<?xml version="1.0" encoding="UTF-8" standalone="no"?>
<!DOCTYPE svg PUBLIC "-//W3C//DTD SVG 1.1//EN"
 "http://www.w3.org/Graphics/SVG/1.1/DTD/svg11.dtd">
<!-- Generated by graphviz version 2.38.0 (20140413.2041)
 -->
<!-- Title: G Pages: 1 -->
<svg width="1975pt" height="124pt"
 viewBox="0.00 0.00 1975.46 123.98" xmlns="http://www.w3.org/2000/svg" xmlns:xlink="http://www.w3.org/1999/xlink">
<g id="graph0" class="graph" transform="scale(1 1) rotate(0) translate(7.992 115.992)">
<title>G</title>
<polygon fill="#000000" stroke="none" points="-7.992,7.992 -7.992,-115.992 1967.46,-115.992 1967.46,7.992 -7.992,7.992"/>
<!-- src/index -->
<g id="node1" class="node"><title>src/index</title>
<ellipse fill="none" stroke="#c6c5fe" cx="963.137" cy="-90" rx="48.1917" ry="18"/>
<text text-anchor="middle" x="963.137" y="-86.3" font-family="Arial" font-size="14.00" fill="#c6c5fe">src/index</text>
</g>
<!-- node_modules/fun&#45;array/src/index -->
<g id="node2" class="node"><title>node_modules/fun&#45;array/src/index</title>
<ellipse fill="none" stroke="#cfffac" cx="150.137" cy="-18" rx="150.273" ry="18"/>
<text text-anchor="middle" x="150.137" y="-14.3" font-family="Arial" font-size="14.00" fill="#cfffac">node_modules/fun&#45;array/src/index</text>
</g>
<!-- src/index&#45;&gt;node_modules/fun&#45;array/src/index -->
<g id="edge1" class="edge"><title>src/index&#45;&gt;node_modules/fun&#45;array/src/index</title>
<path fill="none" stroke="#757575" d="M916.312,-85.6197C808.902,-77.7751 536.532,-57.3669 309.137,-36 295.458,-34.7147 281.126,-33.2911 266.905,-31.8306"/>
<polygon fill="#757575" stroke="#757575" points="266.887,-28.3101 256.58,-30.7621 266.167,-35.273 266.887,-28.3101"/>
</g>
<!-- node_modules/fun&#45;curry/src/index -->
<g id="node3" class="node"><title>node_modules/fun&#45;curry/src/index</title>
<ellipse fill="none" stroke="#cfffac" cx="468.137" cy="-18" rx="150.273" ry="18"/>
<text text-anchor="middle" x="468.137" y="-14.3" font-family="Arial" font-size="14.00" fill="#cfffac">node_modules/fun&#45;curry/src/index</text>
</g>
<!-- src/index&#45;&gt;node_modules/fun&#45;curry/src/index -->
<g id="edge2" class="edge"><title>src/index&#45;&gt;node_modules/fun&#45;curry/src/index</title>
<path fill="none" stroke="#757575" d="M918.773,-82.7264C841.072,-71.7383 678.447,-48.7408 571.3,-33.5887"/>
<polygon fill="#757575" stroke="#757575" points="571.5,-30.0823 561.108,-32.1475 570.52,-37.0133 571.5,-30.0823"/>
</g>
<!-- node_modules/fun&#45;function/src/index -->
<g id="node4" class="node"><title>node_modules/fun&#45;function/src/index</title>
<ellipse fill="none" stroke="#cfffac" cx="799.137" cy="-18" rx="162.471" ry="18"/>
<text text-anchor="middle" x="799.137" y="-14.3" font-family="Arial" font-size="14.00" fill="#cfffac">node_modules/fun&#45;function/src/index</text>
</g>
<!-- src/index&#45;&gt;node_modules/fun&#45;function/src/index -->
<g id="edge3" class="edge"><title>src/index&#45;&gt;node_modules/fun&#45;function/src/index</title>
<path fill="none" stroke="#757575" d="M932.674,-75.9976C908.727,-65.7762 874.918,-51.3456 847.311,-39.5622"/>
<polygon fill="#757575" stroke="#757575" points="848.402,-36.2226 837.831,-35.516 845.654,-42.6607 848.402,-36.2226"/>
</g>
<!-- node_modules/fun&#45;lens/src/index -->
<g id="node5" class="node"><title>node_modules/fun&#45;lens/src/index</title>
<ellipse fill="none" stroke="#cfffac" cx="1127.14" cy="-18" rx="147.574" ry="18"/>
<text text-anchor="middle" x="1127.14" y="-14.3" font-family="Arial" font-size="14.00" fill="#cfffac">node_modules/fun&#45;lens/src/index</text>
</g>
<!-- src/index&#45;&gt;node_modules/fun&#45;lens/src/index -->
<g id="edge4" class="edge"><title>src/index&#45;&gt;node_modules/fun&#45;lens/src/index</title>
<path fill="none" stroke="#757575" d="M993.599,-75.9976C1017.63,-65.7409 1051.59,-51.2457 1079.25,-39.44"/>
<polygon fill="#757575" stroke="#757575" points="1080.92,-42.5325 1088.74,-35.3877 1078.17,-36.0944 1080.92,-42.5325"/>
</g>
<!-- node_modules/fun&#45;predicate/src/index -->
<g id="node6" class="node"><title>node_modules/fun&#45;predicate/src/index</title>
<ellipse fill="none" stroke="#cfffac" cx="1462.14" cy="-18" rx="168.97" ry="18"/>
<text text-anchor="middle" x="1462.14" y="-14.3" font-family="Arial" font-size="14.00" fill="#cfffac">node_modules/fun&#45;predicate/src/index</text>
</g>
<!-- src/index&#45;&gt;node_modules/fun&#45;predicate/src/index -->
<g id="edge5" class="edge"><title>src/index&#45;&gt;node_modules/fun&#45;predicate/src/index</title>
<path fill="none" stroke="#757575" d="M1007.42,-82.788C1084.67,-71.9506 1246.15,-49.2981 1354.38,-34.1157"/>
<polygon fill="#757575" stroke="#757575" points="1354.94,-37.5716 1364.36,-32.7163 1353.97,-30.6395 1354.94,-37.5716"/>
</g>
<!-- node_modules/fun&#45;vector/src/index -->
<g id="node7" class="node"><title>node_modules/fun&#45;vector/src/index</title>
<ellipse fill="none" stroke="#cfffac" cx="1804.14" cy="-18" rx="155.173" ry="18"/>
<text text-anchor="middle" x="1804.14" y="-14.3" font-family="Arial" font-size="14.00" fill="#cfffac">node_modules/fun&#45;vector/src/index</text>
</g>
<!-- src/index&#45;&gt;node_modules/fun&#45;vector/src/index -->
<g id="edge6" class="edge"><title>src/index&#45;&gt;node_modules/fun&#45;vector/src/index</title>
<path fill="none" stroke="#757575" d="M1009.95,-85.7424C1119.98,-77.998 1403.56,-57.5189 1640.14,-36 1654.38,-34.7043 1669.31,-33.2668 1684.12,-31.7921"/>
<polygon fill="#757575" stroke="#757575" points="1684.74,-35.2474 1694.34,-30.7665 1684.04,-28.2824 1684.74,-35.2474"/>
</g>
</g>
</svg>
