<?xml version="1.0" encoding="UTF-8" standalone="no"?>
<!DOCTYPE svg PUBLIC "-//W3C//DTD SVG 1.1//EN"
 "http://www.w3.org/Graphics/SVG/1.1/DTD/svg11.dtd">
<!-- Generated by graphviz version 2.38.0 (20140413.2041)
 -->
<!-- Title: G Pages: 1 -->
<svg width="2524pt" height="124pt"
 viewBox="0.00 0.00 2524.10 123.98" xmlns="http://www.w3.org/2000/svg" xmlns:xlink="http://www.w3.org/1999/xlink">
<g id="graph0" class="graph" transform="scale(1 1) rotate(0) translate(7.992 115.992)">
<title>G</title>
<polygon fill="#000000" stroke="none" points="-7.992,7.992 -7.992,-115.992 2516.11,-115.992 2516.11,7.992 -7.992,7.992"/>
<!-- index.js -->
<g id="node1" class="node"><title>index.js</title>
<ellipse fill="none" stroke="#c6c5fe" cx="1278.04" cy="-90" rx="42.4939" ry="18"/>
<text text-anchor="middle" x="1278.04" y="-86.3" font-family="Arial" font-size="14.00" fill="#c6c5fe">index.js</text>
</g>
<!-- ../node_modules/fun&#45;array/src/index.js -->
<g id="node2" class="node"><title>../node_modules/fun&#45;array/src/index.js</title>
<ellipse fill="none" stroke="#cfffac" cx="167.035" cy="-18" rx="167.07" ry="18"/>
<text text-anchor="middle" x="167.035" y="-14.3" font-family="Arial" font-size="14.00" fill="#cfffac">../node_modules/fun&#45;array/src/index.js</text>
</g>
<!-- index.js&#45;&gt;../node_modules/fun&#45;array/src/index.js -->
<g id="edge1" class="edge"><title>index.js&#45;&gt;../node_modules/fun&#45;array/src/index.js</title>
<path fill="none" stroke="#757575" d="M1236.06,-87.2151C1104.35,-81.4872 687.523,-62.3903 343.035,-36 327.193,-34.7864 310.563,-33.3686 294.11,-31.8788"/>
<polygon fill="#757575" stroke="#757575" points="294.176,-28.3702 283.898,-30.9431 293.537,-35.341 294.176,-28.3702"/>
</g>
<!-- ../node_modules/fun&#45;boolean/src/index.js -->
<g id="node3" class="node"><title>../node_modules/fun&#45;boolean/src/index.js</title>
<ellipse fill="none" stroke="#cfffac" cx="532.035" cy="-18" rx="180.068" ry="18"/>
<text text-anchor="middle" x="532.035" y="-14.3" font-family="Arial" font-size="14.00" fill="#cfffac">../node_modules/fun&#45;boolean/src/index.js</text>
</g>
<!-- index.js&#45;&gt;../node_modules/fun&#45;boolean/src/index.js -->
<g id="edge2" class="edge"><title>index.js&#45;&gt;../node_modules/fun&#45;boolean/src/index.js</title>
<path fill="none" stroke="#757575" d="M1237.13,-85.1618C1130.76,-75.1805 841.722,-48.0591 668.514,-31.8064"/>
<polygon fill="#757575" stroke="#757575" points="668.587,-28.2979 658.304,-30.8482 667.933,-35.2673 668.587,-28.2979"/>
</g>
<!-- ../node_modules/fun&#45;function/src/index.js -->
<g id="node4" class="node"><title>../node_modules/fun&#45;function/src/index.js</title>
<ellipse fill="none" stroke="#cfffac" cx="909.035" cy="-18" rx="178.969" ry="18"/>
<text text-anchor="middle" x="909.035" y="-14.3" font-family="Arial" font-size="14.00" fill="#cfffac">../node_modules/fun&#45;function/src/index.js</text>
</g>
<!-- index.js&#45;&gt;../node_modules/fun&#45;function/src/index.js -->
<g id="edge3" class="edge"><title>index.js&#45;&gt;../node_modules/fun&#45;function/src/index.js</title>
<path fill="none" stroke="#757575" d="M1240.28,-81.8377C1184.03,-71.1665 1076.56,-50.7792 999.267,-36.1171"/>
<polygon fill="#757575" stroke="#757575" points="999.523,-32.6034 989.046,-34.1782 998.218,-39.4807 999.523,-32.6034"/>
</g>
<!-- ../node_modules/fun&#45;object/src/index.js -->
<g id="node5" class="node"><title>../node_modules/fun&#45;object/src/index.js</title>
<ellipse fill="none" stroke="#cfffac" cx="1278.04" cy="-18" rx="172.47" ry="18"/>
<text text-anchor="middle" x="1278.04" y="-14.3" font-family="Arial" font-size="14.00" fill="#cfffac">../node_modules/fun&#45;object/src/index.js</text>
</g>
<!-- index.js&#45;&gt;../node_modules/fun&#45;object/src/index.js -->
<g id="edge4" class="edge"><title>index.js&#45;&gt;../node_modules/fun&#45;object/src/index.js</title>
<path fill="none" stroke="#757575" d="M1278.04,-71.6966C1278.04,-63.9827 1278.04,-54.7125 1278.04,-46.1124"/>
<polygon fill="#757575" stroke="#757575" points="1281.54,-46.1043 1278.04,-36.1043 1274.54,-46.1044 1281.54,-46.1043"/>
</g>
<!-- ../node_modules/fun&#45;type/src/index.js -->
<g id="node6" class="node"><title>../node_modules/fun&#45;type/src/index.js</title>
<ellipse fill="none" stroke="#cfffac" cx="1633.04" cy="-18" rx="164.371" ry="18"/>
<text text-anchor="middle" x="1633.04" y="-14.3" font-family="Arial" font-size="14.00" fill="#cfffac">../node_modules/fun&#45;type/src/index.js</text>
</g>
<!-- index.js&#45;&gt;../node_modules/fun&#45;type/src/index.js -->
<g id="edge5" class="edge"><title>index.js&#45;&gt;../node_modules/fun&#45;type/src/index.js</title>
<path fill="none" stroke="#757575" d="M1315.69,-81.575C1370.31,-70.8045 1473.05,-50.546 1546.85,-35.9943"/>
<polygon fill="#757575" stroke="#757575" points="1547.93,-39.349 1557.06,-33.9804 1546.57,-32.4812 1547.93,-39.349"/>
</g>
<!-- ../node_modules/fun&#45;vector/src/index.js -->
<g id="node7" class="node"><title>../node_modules/fun&#45;vector/src/index.js</title>
<ellipse fill="none" stroke="#cfffac" cx="1988.04" cy="-18" rx="172.47" ry="18"/>
<text text-anchor="middle" x="1988.04" y="-14.3" font-family="Arial" font-size="14.00" fill="#cfffac">../node_modules/fun&#45;vector/src/index.js</text>
</g>
<!-- index.js&#45;&gt;../node_modules/fun&#45;vector/src/index.js -->
<g id="edge6" class="edge"><title>index.js&#45;&gt;../node_modules/fun&#45;vector/src/index.js</title>
<path fill="none" stroke="#757575" d="M1318.76,-84.9851C1421.22,-74.8835 1693.2,-48.0683 1857.19,-31.9004"/>
<polygon fill="#757575" stroke="#757575" points="1857.74,-35.3635 1867.34,-30.8992 1857.05,-28.3973 1857.74,-35.3635"/>
</g>
<!-- ../node_modules/guarded/src/index.js -->
<g id="node8" class="node"><title>../node_modules/guarded/src/index.js</title>
<ellipse fill="none" stroke="#cfffac" cx="2343.04" cy="-18" rx="165.171" ry="18"/>
<text text-anchor="middle" x="2343.04" y="-14.3" font-family="Arial" font-size="14.00" fill="#cfffac">../node_modules/guarded/src/index.js</text>
</g>
<!-- index.js&#45;&gt;../node_modules/guarded/src/index.js -->
<g id="edge7" class="edge"><title>index.js&#45;&gt;../node_modules/guarded/src/index.js</title>
<path fill="none" stroke="#757575" d="M1319.83,-87.0793C1447.28,-81.0999 1842.3,-61.6696 2169.04,-36 2184.7,-34.7696 2201.14,-33.3418 2217.4,-31.8467"/>
<polygon fill="#757575" stroke="#757575" points="2217.87,-35.3189 2227.5,-30.9083 2217.22,-28.3489 2217.87,-35.3189"/>
</g>
</g>
</svg>
