<?xml version="1.0" encoding="UTF-8" standalone="no"?>
<!DOCTYPE svg PUBLIC "-//W3C//DTD SVG 1.1//EN"
 "http://www.w3.org/Graphics/SVG/1.1/DTD/svg11.dtd">
<!-- Generated by graphviz version 2.38.0 (20140413.2041)
 -->
<!-- Title: G Pages: 1 -->
<svg width="1824pt" height="124pt"
 viewBox="0.00 0.00 1824.25 123.98" xmlns="http://www.w3.org/2000/svg" xmlns:xlink="http://www.w3.org/1999/xlink">
<g id="graph0" class="graph" transform="scale(1 1) rotate(0) translate(7.992 115.992)">
<title>G</title>
<polygon fill="#000000" stroke="none" points="-7.992,7.992 -7.992,-115.992 1816.26,-115.992 1816.26,7.992 -7.992,7.992"/>
<!-- index.js -->
<g id="node1" class="node"><title>index.js</title>
<ellipse fill="none" stroke="#c6c5fe" cx="913.035" cy="-90" rx="42.4939" ry="18"/>
<text text-anchor="middle" x="913.035" y="-86.3" font-family="Arial" font-size="14.00" fill="#c6c5fe">index.js</text>
</g>
<!-- ../node_modules/fun&#45;array/src/index.js -->
<g id="node2" class="node"><title>../node_modules/fun&#45;array/src/index.js</title>
<ellipse fill="none" stroke="#cfffac" cx="167.035" cy="-18" rx="167.07" ry="18"/>
<text text-anchor="middle" x="167.035" y="-14.3" font-family="Arial" font-size="14.00" fill="#cfffac">../node_modules/fun&#45;array/src/index.js</text>
</g>
<!-- index.js&#45;&gt;../node_modules/fun&#45;array/src/index.js -->
<g id="edge1" class="edge"><title>index.js&#45;&gt;../node_modules/fun&#45;array/src/index.js</title>
<path fill="none" stroke="#757575" d="M872.252,-85.2583C778.693,-76.6637 541.413,-54.8035 343.035,-36 328.119,-34.5861 312.493,-33.0934 296.97,-31.6034"/>
<polygon fill="#757575" stroke="#757575" points="297.081,-28.098 286.792,-30.6254 296.411,-35.066 297.081,-28.098"/>
</g>
<!-- ../node_modules/fun&#45;function/src/index.js -->
<g id="node3" class="node"><title>../node_modules/fun&#45;function/src/index.js</title>
<ellipse fill="none" stroke="#cfffac" cx="531.035" cy="-18" rx="178.969" ry="18"/>
<text text-anchor="middle" x="531.035" y="-14.3" font-family="Arial" font-size="14.00" fill="#cfffac">../node_modules/fun&#45;function/src/index.js</text>
</g>
<!-- index.js&#45;&gt;../node_modules/fun&#45;function/src/index.js -->
<g id="edge2" class="edge"><title>index.js&#45;&gt;../node_modules/fun&#45;function/src/index.js</title>
<path fill="none" stroke="#757575" d="M875.011,-82.0322C816.827,-71.3703 703.987,-50.6927 623.413,-35.9279"/>
<polygon fill="#757575" stroke="#757575" points="623.726,-32.427 613.259,-34.0671 622.464,-39.3123 623.726,-32.427"/>
</g>
<!-- ../node_modules/fun&#45;predicate/src/index.js -->
<g id="node4" class="node"><title>../node_modules/fun&#45;predicate/src/index.js</title>
<ellipse fill="none" stroke="#cfffac" cx="913.035" cy="-18" rx="185.467" ry="18"/>
<text text-anchor="middle" x="913.035" y="-14.3" font-family="Arial" font-size="14.00" fill="#cfffac">../node_modules/fun&#45;predicate/src/index.js</text>
</g>
<!-- index.js&#45;&gt;../node_modules/fun&#45;predicate/src/index.js -->
<g id="edge3" class="edge"><title>index.js&#45;&gt;../node_modules/fun&#45;predicate/src/index.js</title>
<path fill="none" stroke="#757575" d="M913.035,-71.6966C913.035,-63.9827 913.035,-54.7125 913.035,-46.1124"/>
<polygon fill="#757575" stroke="#757575" points="916.535,-46.1043 913.035,-36.1043 909.535,-46.1044 916.535,-46.1043"/>
</g>
<!-- ../node_modules/fun&#45;type/src/index.js -->
<g id="node5" class="node"><title>../node_modules/fun&#45;type/src/index.js</title>
<ellipse fill="none" stroke="#cfffac" cx="1281.04" cy="-18" rx="164.371" ry="18"/>
<text text-anchor="middle" x="1281.04" y="-14.3" font-family="Arial" font-size="14.00" fill="#cfffac">../node_modules/fun&#45;type/src/index.js</text>
</g>
<!-- index.js&#45;&gt;../node_modules/fun&#45;type/src/index.js -->
<g id="edge4" class="edge"><title>index.js&#45;&gt;../node_modules/fun&#45;type/src/index.js</title>
<path fill="none" stroke="#757575" d="M951.032,-81.7724C1007.62,-71.0078 1115.64,-50.4611 1192.68,-35.8073"/>
<polygon fill="#757575" stroke="#757575" points="1193.69,-39.1777 1202.86,-33.8706 1192.38,-32.301 1193.69,-39.1777"/>
</g>
<!-- ../node_modules/fun&#45;vector/src/index.js -->
<g id="node6" class="node"><title>../node_modules/fun&#45;vector/src/index.js</title>
<ellipse fill="none" stroke="#cfffac" cx="1636.04" cy="-18" rx="172.47" ry="18"/>
<text text-anchor="middle" x="1636.04" y="-14.3" font-family="Arial" font-size="14.00" fill="#cfffac">../node_modules/fun&#45;vector/src/index.js</text>
</g>
<!-- index.js&#45;&gt;../node_modules/fun&#45;vector/src/index.js -->
<g id="edge5" class="edge"><title>index.js&#45;&gt;../node_modules/fun&#45;vector/src/index.js</title>
<path fill="none" stroke="#757575" d="M953.717,-85.0613C1057.77,-74.9867 1337.17,-47.9362 1504.4,-31.7447"/>
<polygon fill="#757575" stroke="#757575" points="1504.89,-35.2137 1514.51,-30.7662 1504.22,-28.2463 1504.89,-35.2137"/>
</g>
</g>
</svg>
