<?xml version="1.0" encoding="UTF-8" standalone="no"?>
<!DOCTYPE svg PUBLIC "-//W3C//DTD SVG 1.1//EN"
 "http://www.w3.org/Graphics/SVG/1.1/DTD/svg11.dtd">
<!-- Generated by graphviz version 2.38.0 (20140413.2041)
 -->
<!-- Title: G Pages: 1 -->
<svg width="2146pt" height="124pt"
 viewBox="0.00 0.00 2146.10 123.98" xmlns="http://www.w3.org/2000/svg" xmlns:xlink="http://www.w3.org/1999/xlink">
<g id="graph0" class="graph" transform="scale(1 1) rotate(0) translate(7.992 115.992)">
<title>G</title>
<polygon fill="#000000" stroke="none" points="-7.992,7.992 -7.992,-115.992 2138.11,-115.992 2138.11,7.992 -7.992,7.992"/>
<!-- index.js -->
<g id="node1" class="node"><title>index.js</title>
<ellipse fill="none" stroke="#c6c5fe" cx="1077.04" cy="-90" rx="42.4939" ry="18"/>
<text text-anchor="middle" x="1077.04" y="-86.3" font-family="Arial" font-size="14.00" fill="#c6c5fe">index.js</text>
</g>
<!-- ../node_modules/fun&#45;array/src/index.js -->
<g id="node2" class="node"><title>../node_modules/fun&#45;array/src/index.js</title>
<ellipse fill="none" stroke="#cfffac" cx="167.035" cy="-18" rx="167.07" ry="18"/>
<text text-anchor="middle" x="167.035" y="-14.3" font-family="Arial" font-size="14.00" fill="#cfffac">../node_modules/fun&#45;array/src/index.js</text>
</g>
<!-- index.js&#45;&gt;../node_modules/fun&#45;array/src/index.js -->
<g id="edge1" class="edge"><title>index.js&#45;&gt;../node_modules/fun&#45;array/src/index.js</title>
<path fill="none" stroke="#757575" d="M1035.62,-86.3623C923.825,-79.1658 606.567,-58.2385 343.035,-36 327.456,-34.6854 311.11,-33.2209 294.919,-31.7184"/>
<polygon fill="#757575" stroke="#757575" points="295.148,-28.2246 284.865,-30.7789 294.496,-35.1943 295.148,-28.2246"/>
</g>
<!-- ../node_modules/fun&#45;function/src/index.js -->
<g id="node3" class="node"><title>../node_modules/fun&#45;function/src/index.js</title>
<ellipse fill="none" stroke="#cfffac" cx="531.035" cy="-18" rx="178.969" ry="18"/>
<text text-anchor="middle" x="531.035" y="-14.3" font-family="Arial" font-size="14.00" fill="#cfffac">../node_modules/fun&#45;function/src/index.js</text>
</g>
<!-- index.js&#45;&gt;../node_modules/fun&#45;function/src/index.js -->
<g id="edge2" class="edge"><title>index.js&#45;&gt;../node_modules/fun&#45;function/src/index.js</title>
<path fill="none" stroke="#757575" d="M1036.89,-83.8527C955.683,-73.442 769.272,-49.5432 646.841,-33.8469"/>
<polygon fill="#757575" stroke="#757575" points="647.035,-30.3432 636.671,-32.543 646.145,-37.2864 647.035,-30.3432"/>
</g>
<!-- ../node_modules/fun&#45;object/src/index.js -->
<g id="node4" class="node"><title>../node_modules/fun&#45;object/src/index.js</title>
<ellipse fill="none" stroke="#cfffac" cx="900.035" cy="-18" rx="172.47" ry="18"/>
<text text-anchor="middle" x="900.035" y="-14.3" font-family="Arial" font-size="14.00" fill="#cfffac">../node_modules/fun&#45;object/src/index.js</text>
</g>
<!-- index.js&#45;&gt;../node_modules/fun&#45;object/src/index.js -->
<g id="edge3" class="edge"><title>index.js&#45;&gt;../node_modules/fun&#45;object/src/index.js</title>
<path fill="none" stroke="#757575" d="M1047.01,-77.1255C1020.82,-66.768 982.265,-51.5201 951.213,-39.24"/>
<polygon fill="#757575" stroke="#757575" points="952.426,-35.9559 941.84,-35.5329 949.852,-42.4653 952.426,-35.9559"/>
</g>
<!-- ../node_modules/fun&#45;type/src/index.js -->
<g id="node5" class="node"><title>../node_modules/fun&#45;type/src/index.js</title>
<ellipse fill="none" stroke="#cfffac" cx="1255.04" cy="-18" rx="164.371" ry="18"/>
<text text-anchor="middle" x="1255.04" y="-14.3" font-family="Arial" font-size="14.00" fill="#cfffac">../node_modules/fun&#45;type/src/index.js</text>
</g>
<!-- index.js&#45;&gt;../node_modules/fun&#45;type/src/index.js -->
<g id="edge4" class="edge"><title>index.js&#45;&gt;../node_modules/fun&#45;type/src/index.js</title>
<path fill="none" stroke="#757575" d="M1107.23,-77.1255C1133.57,-66.768 1172.34,-51.5201 1203.57,-39.24"/>
<polygon fill="#757575" stroke="#757575" points="1204.97,-42.4499 1212.99,-35.5329 1202.41,-35.9355 1204.97,-42.4499"/>
</g>
<!-- ../node_modules/fun&#45;vector/src/index.js -->
<g id="node6" class="node"><title>../node_modules/fun&#45;vector/src/index.js</title>
<ellipse fill="none" stroke="#cfffac" cx="1610.04" cy="-18" rx="172.47" ry="18"/>
<text text-anchor="middle" x="1610.04" y="-14.3" font-family="Arial" font-size="14.00" fill="#cfffac">../node_modules/fun&#45;vector/src/index.js</text>
</g>
<!-- index.js&#45;&gt;../node_modules/fun&#45;vector/src/index.js -->
<g id="edge5" class="edge"><title>index.js&#45;&gt;../node_modules/fun&#45;vector/src/index.js</title>
<path fill="none" stroke="#757575" d="M1117.1,-83.7386C1196.84,-73.2652 1378.01,-49.4722 1497.09,-33.8331"/>
<polygon fill="#757575" stroke="#757575" points="1497.88,-37.2594 1507.34,-32.487 1496.97,-30.319 1497.88,-37.2594"/>
</g>
<!-- ../node_modules/guarded/src/index.js -->
<g id="node7" class="node"><title>../node_modules/guarded/src/index.js</title>
<ellipse fill="none" stroke="#cfffac" cx="1965.04" cy="-18" rx="165.171" ry="18"/>
<text text-anchor="middle" x="1965.04" y="-14.3" font-family="Arial" font-size="14.00" fill="#cfffac">../node_modules/guarded/src/index.js</text>
</g>
<!-- index.js&#45;&gt;../node_modules/guarded/src/index.js -->
<g id="edge6" class="edge"><title>index.js&#45;&gt;../node_modules/guarded/src/index.js</title>
<path fill="none" stroke="#757575" d="M1118.51,-86.2606C1228.3,-78.9352 1535.61,-57.9548 1791.04,-36 1806.29,-34.6887 1822.29,-33.234 1838.15,-31.7434"/>
<polygon fill="#757575" stroke="#757575" points="1838.92,-35.1866 1848.54,-30.7598 1838.26,-28.2177 1838.92,-35.1866"/>
</g>
</g>
</svg>
